<?xml version="1.0" encoding="UTF-8"?>
<!-- Stylized silhouette of Tamil Nadu for use as a circular realm symbol. No text included. -->
<svg xmlns="http://www.w3.org/2000/svg" viewBox="0 0 512 512" width="512" height="512" preserveAspectRatio="xMidYMid meet">
  <defs>
    <style>
      .bg { fill: none; }
      .sil { fill:#FFFFFF; }
    </style>
  </defs>
  <rect width="100%" height="100%" class="bg" />
  <!-- Stylized silhouette path inspired by Tamil Nadu outline. Simplified for icon use. -->
  <path class="sil" d="M410 70c-18 6-34 14-50 25-10 7-20 16-29 24-7 6-13 13-21 19-12 9-25 16-38 23-20 11-41 20-63 26-22 6-45 9-67 8-20-1-40-6-59-12-17-6-33-14-48-24-7-5-14-11-20-18-6-7-12-14-18-22-6-8-13-16-21-22-12-9-27-14-41-7-9 4-17 12-21 21-6 14-1 30 3 44 5 18 11 36 20 53 15 26 36 48 61 62 18 11 38 18 58 23 17 4 35 7 52 11 14 3 28 6 42 10 13 3 26 7 39 11 12 4 24 8 36 13 17 7 34 14 52 18 22 6 45 7 68 6 20-1 40-4 59-10 28-9 54-24 78-42 19-14 36-31 50-51 10-14 18-29 24-45 5-12 8-25 9-38 1-15-3-30-7-44-5-18-13-35-24-50-6-8-14-15-22-21-10-7-21-11-33-8zM280 430c-6-6-13-11-20-16-11-7-23-12-35-16-12-4-25-6-38-6-18 0-36 3-53 9-13 4-25 9-36 15-6 3-12 7-18 12-4 4-8 9-9 15-2 7 1 14 6 19 6 6 14 8 22 10 19 4 39 5 58 4 28-2 56-8 82-20 8-4 16-9 22-15 6-6 12-12 17-19 1-1 0-3-1-4-1-1-3 0-4 1z"/>
</svg>
