<?xml version="1.0" encoding="UTF-8"?>
<!-- Tamil Nadu silhouette (simplified) - no text - optimized for circular icon use -->
<svg xmlns="http://www.w3.org/2000/svg" viewBox="0 0 600 600" width="600" height="600" preserveAspectRatio="xMidYMid meet">
  <defs>
    <style>
      .sil { fill: #ffffff; }
      .bg { fill: none; }
    </style>
  </defs>
  <rect width="100%" height="100%" class="bg" />
  <!-- Simplified Tamil Nadu outline path. This is a stylized silhouette suitable for icons. -->
  <path class="sil" d="M120 480c10-18 18-36 28-54 6-12 14-22 22-33 8-10 18-19 28-27 12-10 25-18 38-26 18-10 36-18 56-22 20-4 41-6 62-6 22 0 43 2 64 8 12 4 24 8 35 14 10 6 19 12 28 20 8 7 16 15 23 23 10 12 18 26 24 40 6 12 10 25 12 38 4 24 2 48-6 70-6 16-14 30-24 44-8 10-18 19-29 26-12 8-25 14-38 20-22 10-45 16-69 18-18 2-36 1-54-2-16-2-32-6-46-12-18-8-34-20-50-32-8-6-16-12-22-20-8-10-6-18 2-30z"/>
</svg>
